<svg width="612" height="117" viewBox="0 0 612 117" fill="none" xmlns="http://www.w3.org/2000/svg">
<path d="M53.1285 19.584C62.1738 19.584 70.0672 21.4187 76.8085 25.088C83.6352 28.7573 88.9258 34.048 92.6805 40.96C96.4352 47.7867 98.3125 56.1067 98.3125 65.92C98.3125 75.4773 96.3925 83.84 92.5525 91.008C88.7125 98.176 83.3365 103.765 76.4245 107.776C69.5978 111.787 61.7898 113.792 53.0005 113.792C43.9552 113.792 36.0192 111.957 29.1925 108.288C22.4512 104.619 17.2032 99.328 13.4485 92.416C9.69383 85.504 7.8165 77.184 7.8165 67.456C7.8165 57.8987 9.7365 49.536 13.5765 42.368C17.5018 35.2 22.8352 29.6107 29.5765 25.6C36.4032 21.5893 44.2538 19.584 53.1285 19.584ZM52.6165 21.888C47.8378 21.888 43.6565 23.808 40.0725 27.648C36.5738 31.488 33.8432 36.7787 31.8805 43.52C30.0032 50.2613 29.0645 58.0693 29.0645 66.944C29.0645 75.9893 30.1312 83.8827 32.2645 90.624C34.4832 97.28 37.4272 102.443 41.0965 106.112C44.8512 109.696 48.9898 111.488 53.5125 111.488C58.2912 111.488 62.4298 109.568 65.9285 105.728C69.5125 101.888 72.2432 96.5973 74.1205 89.856C76.0832 83.0293 77.0645 75.2213 77.0645 66.432C77.0645 57.3013 75.9552 49.408 73.7365 42.752C71.6032 36.096 68.6592 30.976 64.9045 27.392C61.2352 23.7227 57.1392 21.888 52.6165 21.888ZM143.526 17.024C148.219 17.024 152.4 18.0907 156.07 20.224C159.739 22.3573 162.214 25.472 163.494 29.568L161.19 30.72C160.251 27.5627 158.374 24.96 155.558 22.912C152.827 20.864 149.499 19.84 145.574 19.84C141.222 19.84 138.022 21.2053 135.974 23.936C133.926 26.5813 132.902 30.848 132.902 36.736V45.952H149.926V48.512H132.902V100.096C132.902 103.68 133.499 106.112 134.694 107.392C135.974 108.672 138.107 109.312 141.094 109.312V112C139.387 111.915 136.955 111.829 133.798 111.744C130.726 111.573 127.526 111.488 124.198 111.488C120.699 111.488 117.158 111.573 113.574 111.744C109.99 111.829 107.302 111.915 105.51 112V109.312C108.752 109.312 111.056 108.672 112.422 107.392C113.787 106.112 114.47 103.68 114.47 100.096V48.512H104.998V45.952H114.47C114.47 41.344 115.152 37.2053 116.518 33.536C117.968 29.7813 120.016 26.6667 122.662 24.192C125.051 22.0587 127.995 20.352 131.494 19.072C135.078 17.7067 139.088 17.024 143.526 17.024ZM181.67 11.904C184.656 11.904 187.259 12.288 189.478 13.056C191.696 13.824 193.616 14.848 195.238 16.128C196.518 17.0667 197.584 18.3893 198.438 20.096C199.291 21.7173 199.718 23.5947 199.718 25.728C199.718 28.032 198.864 30.08 197.158 31.872C195.451 33.664 193.275 34.56 190.63 34.56C187.814 34.56 185.467 33.7493 183.59 32.128C181.798 30.5067 180.902 28.288 180.902 25.472C180.902 23.2533 181.542 21.2907 182.822 19.584C184.102 17.8773 185.936 16.6827 188.326 16C188.07 15.488 187.558 15.0613 186.79 14.72C186.022 14.3787 184.998 14.208 183.718 14.208C182.096 14.208 180.731 14.5067 179.622 15.104C178.512 15.7013 177.574 16.512 176.806 17.536C175.952 18.816 175.355 20.6933 175.014 23.168C174.672 25.5573 174.502 29.2693 174.502 34.304V45.952H188.198V48.512H174.502V98.816C174.502 102.997 175.568 105.813 177.701 107.264C179.835 108.629 182.779 109.312 186.534 109.312V112C184.315 111.915 181.2 111.829 177.19 111.744C173.179 111.573 168.955 111.488 164.518 111.488C161.275 111.488 158.075 111.573 154.918 111.744C151.76 111.829 149.414 111.915 147.878 112V109.312C150.864 109.312 152.955 108.672 154.15 107.392C155.43 106.112 156.07 103.68 156.07 100.096V48.512H147.366V45.952H156.07C156.07 40.9173 156.326 36.736 156.838 33.408C157.35 29.9947 158.16 27.0933 159.27 24.704C160.464 22.3147 162.086 20.1813 164.134 18.304C165.926 16.512 168.358 15.0187 171.43 13.824C174.587 12.544 178 11.904 181.67 11.904ZM261.667 21.12L292.771 101.248C293.965 104.32 295.288 106.453 296.739 107.648C298.275 108.757 299.64 109.355 300.835 109.44V112C298.275 111.829 295.245 111.744 291.747 111.744C288.333 111.659 284.877 111.616 281.379 111.616C277.453 111.616 273.741 111.659 270.243 111.744C266.744 111.744 263.971 111.829 261.923 112V109.44C266.275 109.269 269.005 108.544 270.115 107.264C271.309 105.899 271.053 103.04 269.347 98.688L247.587 39.168L249.891 35.84L230.435 86.528C228.557 91.2213 227.405 95.0613 226.979 98.048C226.637 101.035 226.851 103.339 227.619 104.96C228.472 106.581 229.795 107.733 231.587 108.416C233.464 109.013 235.683 109.355 238.243 109.44V112C235.427 111.829 232.739 111.744 230.179 111.744C227.619 111.659 225.016 111.616 222.371 111.616C220.493 111.616 218.701 111.659 216.995 111.744C215.373 111.744 213.922 111.829 212.642 112V109.44C214.434 109.099 216.269 107.947 218.147 105.984C220.024 104.021 221.859 100.693 223.651 96L252.835 21.12C254.2 21.2053 255.651 21.248 257.187 21.248C258.808 21.248 260.301 21.2053 261.667 21.12ZM270.627 75.136V77.696H232.483L233.763 75.136H270.627ZM336.29 44.032C339.618 44.032 342.647 44.416 345.378 45.184C348.194 45.8667 350.498 46.7627 352.29 47.872C354.508 49.2373 356.215 50.944 357.41 52.992C358.69 54.9547 359.33 57.2587 359.33 59.904C359.33 62.8907 358.391 65.3653 356.514 67.328C354.636 69.2053 352.204 70.144 349.218 70.144C346.231 70.144 343.842 69.2907 342.05 67.584C340.258 65.8773 339.362 63.5733 339.362 60.672C339.362 57.9413 340.215 55.68 341.922 53.888C343.628 52.0107 345.591 50.7733 347.81 50.176C347.127 49.3227 346.103 48.5973 344.738 48C343.372 47.4027 341.836 47.104 340.13 47.104C337.484 47.104 335.138 47.872 333.09 49.408C331.127 50.944 329.463 53.0773 328.098 55.808C326.732 58.5387 325.666 61.7387 324.898 65.408C324.215 69.0773 323.874 73.088 323.874 77.44C323.874 84.0107 324.684 89.1733 326.306 92.928C328.012 96.6827 330.146 99.328 332.706 100.864C335.351 102.4 338.082 103.168 340.898 103.168C342.519 103.168 344.268 102.912 346.146 102.4C348.108 101.888 350.071 100.864 352.034 99.328C354.082 97.792 355.959 95.616 357.666 92.8L359.842 93.568C358.903 96.7253 357.367 99.8827 355.234 103.04C353.1 106.197 350.327 108.8 346.914 110.848C343.5 112.811 339.319 113.792 334.37 113.792C328.823 113.792 323.788 112.597 319.266 110.208C314.828 107.733 311.244 103.979 308.514 98.944C305.868 93.824 304.546 87.2533 304.546 79.232C304.546 71.552 305.911 65.1093 308.642 59.904C311.458 54.6133 315.255 50.6453 320.034 48C324.812 45.3547 330.231 44.032 336.29 44.032ZM399.79 44.032C403.118 44.032 406.147 44.416 408.878 45.184C411.694 45.8667 413.998 46.7627 415.79 47.872C418.008 49.2373 419.715 50.944 420.91 52.992C422.19 54.9547 422.83 57.2587 422.83 59.904C422.83 62.8907 421.891 65.3653 420.014 67.328C418.136 69.2053 415.704 70.144 412.718 70.144C409.731 70.144 407.342 69.2907 405.55 67.584C403.758 65.8773 402.862 63.5733 402.862 60.672C402.862 57.9413 403.715 55.68 405.422 53.888C407.128 52.0107 409.091 50.7733 411.31 50.176C410.627 49.3227 409.603 48.5973 408.238 48C406.872 47.4027 405.336 47.104 403.63 47.104C400.984 47.104 398.638 47.872 396.59 49.408C394.627 50.944 392.963 53.0773 391.598 55.808C390.232 58.5387 389.166 61.7387 388.398 65.408C387.715 69.0773 387.374 73.088 387.374 77.44C387.374 84.0107 388.184 89.1733 389.806 92.928C391.512 96.6827 393.646 99.328 396.206 100.864C398.851 102.4 401.582 103.168 404.398 103.168C406.019 103.168 407.768 102.912 409.646 102.4C411.608 101.888 413.571 100.864 415.534 99.328C417.582 97.792 419.459 95.616 421.166 92.8L423.342 93.568C422.403 96.7253 420.867 99.8827 418.734 103.04C416.6 106.197 413.827 108.8 410.414 110.848C407 112.811 402.819 113.792 397.87 113.792C392.323 113.792 387.288 112.597 382.766 110.208C378.328 107.733 374.744 103.979 372.014 98.944C369.368 93.824 368.046 87.2533 368.046 79.232C368.046 71.552 369.411 65.1093 372.142 59.904C374.958 54.6133 378.755 50.6453 383.534 48C388.312 45.3547 393.731 44.032 399.79 44.032ZM463.034 44.032C470.543 44.032 476.431 46.2507 480.698 50.688C484.964 55.1253 487.098 62.3787 487.098 72.448H444.986L444.73 70.016H470.97C471.055 65.8347 470.799 61.9947 470.202 58.496C469.604 54.912 468.666 52.0533 467.386 49.92C466.106 47.7867 464.399 46.72 462.266 46.72C459.279 46.72 456.719 48.5973 454.586 52.352C452.538 56.1067 451.3 62.336 450.874 71.04L451.258 71.808C451.172 72.832 451.087 73.8987 451.002 75.008C451.002 76.1173 451.002 77.2693 451.002 78.464C451.002 84.352 451.812 89.1307 453.434 92.8C455.14 96.4693 457.274 99.1573 459.833 100.864C462.394 102.485 464.996 103.296 467.642 103.296C469.434 103.296 471.268 103.04 473.146 102.528C475.108 101.931 477.071 100.907 479.034 99.456C480.996 97.92 482.831 95.7867 484.538 93.056L486.842 93.824C485.818 97.0667 484.196 100.224 481.978 103.296C479.759 106.368 476.943 108.885 473.53 110.848C470.116 112.811 466.02 113.792 461.242 113.792C455.439 113.792 450.319 112.555 445.882 110.08C441.444 107.605 437.946 103.851 435.385 98.816C432.911 93.7813 431.674 87.3813 431.674 79.616C431.674 71.68 432.996 65.0667 435.642 59.776C438.372 54.4853 442.084 50.56 446.778 48C451.556 45.3547 456.975 44.032 463.034 44.032ZM519.854 44.032C523.438 44.032 526.552 44.5013 529.198 45.44C531.928 46.2933 533.891 47.1467 535.086 48C537.987 49.9627 539.779 48.6827 540.462 44.16H543.15C542.979 46.5493 542.851 49.4933 542.766 52.992C542.68 56.4053 542.638 60.9707 542.638 66.688H539.95C539.523 63.5307 538.712 60.416 537.518 57.344C536.323 54.272 534.574 51.7547 532.27 49.792C530.051 47.8293 527.15 46.848 523.566 46.848C521.091 46.848 519 47.5733 517.294 49.024C515.587 50.3893 514.734 52.3947 514.734 55.04C514.734 57.6 515.502 59.8613 517.038 61.824C518.574 63.7013 520.536 65.536 522.926 67.328C525.4 69.0347 527.96 70.8693 530.606 72.832C533.422 74.9653 535.982 77.0987 538.286 79.232C540.59 81.28 542.424 83.5413 543.79 86.016C545.155 88.4907 545.838 91.4347 545.838 94.848C545.838 98.688 544.728 102.059 542.51 104.96C540.291 107.776 537.347 109.952 533.678 111.488C530.094 113.024 526.083 113.792 521.646 113.792C519.086 113.792 516.782 113.536 514.734 113.024C512.771 112.512 511.064 111.872 509.614 111.104C508.504 110.592 507.438 110.123 506.414 109.696C505.475 109.184 504.579 108.757 503.726 108.416C502.872 108.16 502.104 108.459 501.422 109.312C500.824 110.165 500.355 111.36 500.014 112.896H497.326C497.496 110.165 497.624 106.837 497.71 102.912C497.795 98.9867 497.838 93.7813 497.838 87.296H500.526C501.038 91.904 501.976 96 503.342 99.584C504.707 103.083 506.542 105.856 508.846 107.904C511.235 109.867 514.222 110.848 517.806 110.848C519.256 110.848 520.664 110.549 522.03 109.952C523.395 109.355 524.504 108.373 525.358 107.008C526.296 105.643 526.766 103.893 526.766 101.76C526.766 98.0053 525.528 94.8907 523.054 92.416C520.664 89.9413 517.592 87.2533 513.838 84.352C511.107 82.1333 508.504 79.9573 506.03 77.824C503.64 75.6053 501.678 73.216 500.142 70.656C498.606 68.0107 497.838 65.024 497.838 61.696C497.838 57.856 498.862 54.6133 500.91 51.968C502.958 49.3227 505.646 47.36 508.974 46.08C512.387 44.7147 516.014 44.032 519.854 44.032ZM578.979 44.032C582.563 44.032 585.677 44.5013 588.323 45.44C591.053 46.2933 593.016 47.1467 594.211 48C597.112 49.9627 598.904 48.6827 599.587 44.16H602.275C602.104 46.5493 601.976 49.4933 601.891 52.992C601.805 56.4053 601.763 60.9707 601.763 66.688H599.075C598.648 63.5307 597.837 60.416 596.643 57.344C595.448 54.272 593.699 51.7547 591.395 49.792C589.176 47.8293 586.275 46.848 582.691 46.848C580.216 46.848 578.125 47.5733 576.419 49.024C574.712 50.3893 573.859 52.3947 573.859 55.04C573.859 57.6 574.627 59.8613 576.163 61.824C577.699 63.7013 579.661 65.536 582.051 67.328C584.525 69.0347 587.085 70.8693 589.731 72.832C592.547 74.9653 595.107 77.0987 597.411 79.232C599.715 81.28 601.549 83.5413 602.915 86.016C604.28 88.4907 604.963 91.4347 604.963 94.848C604.963 98.688 603.853 102.059 601.635 104.96C599.416 107.776 596.472 109.952 592.803 111.488C589.219 113.024 585.208 113.792 580.771 113.792C578.211 113.792 575.907 113.536 573.859 113.024C571.896 112.512 570.189 111.872 568.739 111.104C567.629 110.592 566.563 110.123 565.539 109.696C564.6 109.184 563.704 108.757 562.851 108.416C561.997 108.16 561.229 108.459 560.547 109.312C559.949 110.165 559.48 111.36 559.139 112.896H556.451C556.621 110.165 556.749 106.837 556.835 102.912C556.92 98.9867 556.963 93.7813 556.963 87.296H559.651C560.163 91.904 561.101 96 562.467 99.584C563.832 103.083 565.667 105.856 567.971 107.904C570.36 109.867 573.347 110.848 576.931 110.848C578.381 110.848 579.789 110.549 581.155 109.952C582.52 109.355 583.629 108.373 584.483 107.008C585.421 105.643 585.891 103.893 585.891 101.76C585.891 98.0053 584.653 94.8907 582.179 92.416C579.789 89.9413 576.717 87.2533 572.963 84.352C570.232 82.1333 567.629 79.9573 565.155 77.824C562.765 75.6053 560.803 73.216 559.267 70.656C557.731 68.0107 556.963 65.024 556.963 61.696C556.963 57.856 557.987 54.6133 560.035 51.968C562.083 49.3227 564.771 47.36 568.099 46.08C571.512 44.7147 575.139 44.032 578.979 44.032Z" fill="white"/>
</svg>
